<svg width="36" height="26" viewBox="0 0 36 26" fill="none" xmlns="http://www.w3.org/2000/svg">
<path d="M22.9091 0C26.381 0 29.7107 1.36964 32.1658 3.80761C34.6208 6.24558 36 9.55219 36 13C36 16.4478 34.6208 19.7544 32.1658 22.1924C29.7107 24.6304 26.381 26 22.9091 26C19.4372 26 16.1074 24.6304 13.6524 22.1924C11.1974 19.7544 9.81818 16.4478 9.81818 13C9.81818 9.55219 11.1974 6.24558 13.6524 3.80761C16.1074 1.36964 19.4372 0 22.9091 0ZM22.9091 22.75C25.513 22.75 28.0103 21.7228 29.8516 19.8943C31.6929 18.0658 32.7273 15.5859 32.7273 13C32.7273 10.4141 31.6929 7.93419 29.8516 6.10571C28.0103 4.27723 25.513 3.25 22.9091 3.25C20.3051 3.25 17.8079 4.27723 15.9666 6.10571C14.1253 7.93419 13.0909 10.4141 13.0909 13C13.0909 15.5859 14.1253 18.0658 15.9666 19.8943C17.8079 21.7228 20.3051 22.75 22.9091 22.75ZM3.27273 13C3.27273 17.2412 6.00545 20.8487 9.81818 22.1812V25.5775C4.17273 24.1313 0 19.0613 0 13C0 6.93875 4.17273 1.86875 9.81818 0.4225V3.81875C6.00545 5.15125 3.27273 8.75875 3.27273 13Z" fill="#EB95F9"/>
</svg>
