<svg width="36" height="36" viewBox="0 0 36 36" fill="none" xmlns="http://www.w3.org/2000/svg">
<path d="M18 15.9047C18.5557 15.9047 19.0886 16.1255 19.4815 16.5184C19.8744 16.9113 20.0952 17.4443 20.0952 17.9999C20.0952 18.5556 19.8744 19.0885 19.4815 19.4815C19.0886 19.8744 18.5557 20.0951 18 20.0951C17.4443 20.0951 16.9114 19.8744 16.5185 19.4815C16.1256 19.0885 15.9048 18.5556 15.9048 17.9999C15.9048 17.4443 16.1256 16.9113 16.5185 16.5184C16.9114 16.1255 17.4443 15.9047 18 15.9047ZM1.69941 1.69935C4.69553 -1.29678 11.1906 0.0441456 18 4.5069C24.8094 0.0441456 31.3045 -1.29678 34.3006 1.69935C37.2967 4.69547 35.9558 11.1906 31.493 17.9999C35.9558 24.8093 37.2967 31.3044 34.3006 34.3005C31.3045 37.2967 24.8094 35.9557 18 31.493C11.1906 35.9557 4.69553 37.2967 1.69941 34.3005C-1.29672 31.3044 0.0442067 24.8093 4.50697 17.9999C0.0442067 11.1906 -1.29672 4.69547 1.69941 1.69935ZM25.417 10.583C26.695 11.882 27.8684 13.202 28.9579 14.5219C31.8492 10.0592 32.8968 6.22496 31.3254 4.67452C29.775 3.10313 25.9408 4.15072 21.478 7.04209C22.798 8.13159 24.118 9.30489 25.417 10.583ZM10.583 25.4169C9.30495 24.1179 8.13165 22.7979 7.04215 21.478C4.15078 25.9407 3.10319 29.7749 4.67458 31.3254C6.22502 32.8968 10.0592 31.8492 14.522 28.9578C13.202 27.8683 11.882 26.695 10.583 25.4169ZM4.67458 4.67452C3.10319 6.22496 4.15078 10.0592 7.04215 14.5219C8.13165 13.202 9.30495 11.882 10.583 10.583C11.882 9.30489 13.202 8.13159 14.522 7.04209C10.0592 4.15072 6.22502 3.10313 4.67458 4.67452ZM13.5582 22.4417C15.0248 23.9084 16.5334 25.2493 18 26.4436C19.4666 25.2493 20.9752 23.9084 22.4418 22.4417C23.9084 20.9751 25.2494 19.4666 26.4436 17.9999C25.2494 16.5333 23.9084 15.0248 22.4418 13.5581C20.9752 12.0915 19.4666 10.7506 18 9.55632C16.5334 10.7506 15.0248 12.0915 13.5582 13.5581C12.0916 15.0248 10.7506 16.5333 9.55638 17.9999C10.7506 19.4666 12.0916 20.9751 13.5582 22.4417ZM31.3254 31.3254C32.8968 29.7749 31.8492 25.9407 28.9579 21.478C27.8684 22.7979 26.695 24.1179 25.417 25.4169C24.118 26.695 22.798 27.8683 21.478 28.9578C25.9408 31.8492 29.775 32.8968 31.3254 31.3254Z" fill="#EB95F9"/>
</svg>
