<svg width="40" height="40" viewBox="0 0 40 40" fill="none" xmlns="http://www.w3.org/2000/svg">
<path d="M20 24H38V28H20V24Z" fill="white"/>
<path d="M20 32H32V36H20V32Z" fill="white"/>
<path d="M2 26C2 24.8954 2.89543 24 4 24H14C15.1046 24 16 24.8954 16 26V36C16 37.1046 15.1046 38 14 38H4C2.89543 38 2 37.1046 2 36V26Z" fill="white"/>
<path d="M20 10H32V14H20V10Z" fill="white"/>
<path d="M20 2H38V6H20V2Z" fill="white"/>
<path d="M2 4C2 2.89543 2.89543 2 4 2H14C15.1046 2 16 2.89543 16 4V14C16 15.1046 15.1046 16 14 16H4C2.89543 16 2 15.1046 2 14V4Z" fill="white"/>
</svg>
