<svg width="34" height="34" viewBox="0 0 34 34" fill="none" xmlns="http://www.w3.org/2000/svg">
<path fill-rule="evenodd" clip-rule="evenodd" d="M14.9979 0.850006C14.5556 0.850006 14.1971 1.20855 14.1971 1.65083V4.67106C12.9492 4.97951 11.7544 5.47316 10.6527 6.13555L8.52431 4.00164C8.37419 3.85113 8.1704 3.76649 7.95783 3.76635C7.74526 3.76621 7.54135 3.8506 7.39104 4.00091L4.00088 7.39107C3.85056 7.54138 3.76618 7.74529 3.76632 7.95786C3.76646 8.17043 3.8511 8.37422 4.00161 8.52434L6.13552 10.6528C5.47313 11.7544 4.97948 12.9492 4.67103 14.1971H1.6508C1.20852 14.1971 0.849976 14.5557 0.849976 14.9979V19.0021C0.849976 19.4444 1.20852 19.8029 1.6508 19.8029H4.67103C4.97948 21.0508 5.47313 22.2456 6.13552 23.3473L4.00161 25.4757C3.8511 25.6258 3.76646 25.8296 3.76632 26.0422C3.76618 26.2547 3.85056 26.4586 4.00088 26.6089L7.39104 29.9991C7.54135 30.1494 7.74526 30.2338 7.95783 30.2337C8.1704 30.2335 8.37419 30.1489 8.52431 29.9984L10.6527 27.8645C11.7544 28.5269 12.9492 29.0205 14.1971 29.329V32.3492C14.1971 32.7915 14.5556 33.15 14.9979 33.15H19.002C19.4443 33.15 19.8029 32.7915 19.8029 32.3492V29.329C21.0508 29.0205 22.2455 28.5269 23.3472 27.8645L25.4756 29.9984C25.6258 30.1489 25.8296 30.2335 26.0421 30.2337C26.2547 30.2338 26.4586 30.1494 26.6089 29.9991L29.9991 26.6089C30.1494 26.4586 30.2338 26.2547 30.2336 26.0422C30.2335 25.8296 30.1489 25.6258 29.9983 25.4757L27.8644 23.3473C28.5268 22.2456 29.0205 21.0508 29.3289 19.8029H32.3492C32.7914 19.8029 33.15 19.4444 33.15 19.0021V14.9979C33.15 14.5557 32.7914 14.1971 32.3492 14.1971H29.3289C29.0205 12.9492 28.5268 11.7544 27.8644 10.6528L29.9983 8.52434C30.1489 8.37422 30.2335 8.17043 30.2336 7.95786C30.2338 7.74529 30.1494 7.54138 29.9991 7.39107L26.6089 4.00091C26.4586 3.8506 26.2547 3.76621 26.0421 3.76635C25.8296 3.76649 25.6258 3.85113 25.4756 4.00164L23.3472 6.13555C22.2455 5.47316 21.0508 4.97951 19.8029 4.67106V1.65083C19.8029 1.20855 19.4443 0.850006 19.002 0.850006H14.9979ZM11.3942 17C11.3942 13.904 13.904 11.3942 17 11.3942C20.096 11.3942 22.6058 13.904 22.6058 17C22.6058 20.096 20.096 22.6058 17 22.6058C13.904 22.6058 11.3942 20.096 11.3942 17Z" fill="#686D82"/>
</svg>
