<svg width="34" height="34" viewBox="0 0 34 34" fill="none" xmlns="http://www.w3.org/2000/svg">
<path d="M17 3.4C9.48893 3.4 3.4 9.48893 3.4 17C3.4 24.5111 9.48893 30.6 17 30.6V34C7.61116 34 0 26.3888 0 17C0 7.61116 7.61116 0 17 0C26.3888 0 34 7.61116 34 17H30.6C30.6 9.48893 24.5111 3.4 17 3.4Z" fill="#EB95F9"/>
<path d="M20.4 22.8042L17 19.4042C16.3361 18.7403 16.3361 17.6639 17 17C17.6639 16.3361 18.7403 16.3361 19.4042 17L22.8042 20.4H30.6V23.8H26.2042L27.9042 25.5H34V28.9H31.3042L32.6521 30.2479L30.2479 32.6521L28.9 31.3042V34H25.5V27.9042L23.8 26.2042V30.6H20.4V22.8042Z" fill="#EB95F9"/>
<path d="M11.9 17C11.9 14.1833 14.1833 11.9 17 11.9C19.8167 11.9 22.1 14.1833 22.1 17H25.5C25.5 12.3056 21.6944 8.5 17 8.5C12.3056 8.5 8.5 12.3056 8.5 17C8.5 21.6944 12.3056 25.5 17 25.5V22.1C14.1833 22.1 11.9 19.8167 11.9 17Z" fill="#EB95F9"/>
</svg>
